# xmcd
#
# Track frame offsets:
#	150
#	18535
#	40242
#	58588
#	75720
#	93222
#	111033
#	128117
#	145099
#	161290
#	178014
#	192329
#	201844
#	219819
#	237898
#
# Disc length: 3383 seconds
#
# Revision: 1
# Processed by: cddbd v1.5.1PL0 Copyright (c) Steve Scherf et al.
# Submitted via: audiograbber 1.82.02
#
DISCID=c20d350f
DTITLE=CD Pool - Radio Jan 2005
DYEAR=2005
DGENRE=Pop
TTITLE0=Destiny`s Child - Soldier 
TTITLE1=Eminem - Like Toy Soldier (Clean)
TTITLE2=Duran Duran - What Happens Tomorrow
TTITLE3=Atomic Kitten - Cradle
TTITLE4=Beverley Knight - Keep This Fire Burning
TTITLE5=Jamie Scott - Searching
TTITLE6=Brian McFadden and Delta Goodrem - Almost Here
TTITLE7=Feist - Inside and Out
TTITLE8=Houston - Ain`t Nothing Wrong
TTITLE9=Kimberley Locke - Coulda Been
TTITLE10=Daniel Bedingfield - Wrap My Words Around You
TTITLE11=Kings Of Leon - Four Kicks
TTITLE12=Music, The - Breakin'
TTITLE13=Game, The feat 50 Cent  - How We Do
TTITLE14=Fierce Child - What Makes A Girl Fierce (Explicit)
EXTD=
EXTT0=
EXTT1=
EXTT2=
EXTT3=
EXTT4=
EXTT5=
EXTT6=
EXTT7=
EXTT8=
EXTT9=
EXTT10=
EXTT11=
EXTT12=
EXTT13=
EXTT14=
PLAYORDER=
